<svg id="Capa_1" enable-background="new 0 0 512 512" height="512" viewBox="0 0 512 512" width="512" xmlns="http://www.w3.org/2000/svg"><g><path d="m457 331h-402c-8.284 0-15-6.716-15-15v-260c0-24.813 20.187-45 45-45h342c24.813 0 45 20.187 45 45v260c0 8.284-6.716 15-15 15z" fill="#0a789b"/><path d="m427 11h-171v320h201c8.284 0 15-6.716 15-15v-260c0-24.813-20.187-45-45-45z" fill="#08475e"/><path d="m442 56c0-8.271-6.729-15-15-15h-342c-8.271 0-15 6.729-15 15v227.112h372z" fill="#44ffe8"/><path d="m427 41h-171v242.112h186v-227.112c0-8.271-6.729-15-15-15z" fill="#00b4bc"/><g><path d="m510.927 410.429-38.927-97.317h-432l-38.927 97.317c-1.849 4.621-1.285 9.858 1.506 13.98 2.79 4.122 7.443 6.591 12.421 6.591h482c4.978 0 9.631-2.469 12.421-6.591 2.791-4.121 3.354-9.359 1.506-13.98z" fill="#08475e"/></g><path d="m472 313.112h-216v117.888h241c4.978 0 9.631-2.469 12.421-6.591 2.791-4.122 3.354-9.359 1.506-13.98z" fill="#05303d"/><path d="m511.994 415.888h-511.988c-.001.038-.006.074-.006.112v40c0 24.813 20.187 45 45 45h422c24.813 0 45-20.187 45-45v-40c0-.038-.005-.074-.006-.112z" fill="#0a789b"/><path d="m256 415.888v85.112h211c24.813 0 45-20.187 45-45v-40c0-.038-.005-.074-.006-.112z" fill="#08475e"/><g><g><path d="m256 161c-8.284 0-15-6.716-15-15v-30c0-8.271-6.729-15-15-15h-60c-8.284 0-15-6.716-15-15s6.716-15 15-15h60c24.813 0 45 20.187 45 45v30c0 8.284-6.716 15-15 15z" fill="#ffda44"/></g><path d="m256 82.495v78.505c8.284 0 15-6.716 15-15v-30c0-13.297-5.801-25.26-15-33.505z" fill="#ff9f22"/><path d="m355.053 211.597-11.628-46.511c-5.017-20.069-22.969-34.086-43.656-34.086h-87.537c-20.688 0-38.64 14.017-43.656 34.085l-11.628 46.511c-.629 2.512-.947 5.1-.947 7.692 0 17.474 14.206 31.692 31.676 31.711 10.124.011 19.457-5.504 24.665-14.185l18.489-30.814h50.339l18.489 30.815c5.209 8.681 14.542 14.196 24.665 14.185 17.47-.019 31.677-14.237 31.677-31.711-.001-2.593-.319-5.181-.948-7.692z" fill="#0a789b"/><path d="m355.053 211.597-11.628-46.511c-5.017-20.069-22.969-34.086-43.656-34.086h-43.769v75h25.17l18.489 30.815c5.209 8.681 14.542 14.196 24.665 14.185 17.47-.019 31.677-14.237 31.677-31.711-.001-2.593-.319-5.181-.948-7.692z" fill="#08475e"/></g></g></svg>